<mxfile host="app.diagrams.net" modified="2023-02-19T13:51:20.200Z" agent="5.0 (Windows NT 10.0; Win64; x64) AppleWebKit/537.36 (KHTML, like Gecko) Chrome/108.0.0.0 YaBrowser/23.1.2.928 Yowser/2.5 Safari/537.36" etag="L_COBw9dNOU4mKqbGzaZ" version="20.8.20" type="github">
  <diagram name="Страница 1" id="5HgcLsvbRW-HA8QMTe-G">
    <mxGraphModel dx="2004" dy="1154" grid="1" gridSize="10" guides="1" tooltips="1" connect="1" arrows="1" fold="1" page="1" pageScale="1" pageWidth="827" pageHeight="1169" background="#E6E6E6" math="0" shadow="0">
      <root>
        <mxCell id="0" />
        <mxCell id="1" parent="0" />
        <mxCell id="g-EUFQ-NRCmpqRzRRzE9-9" value="DockerHub" style="ellipse;shape=cloud;whiteSpace=wrap;html=1;fontSize=20;" parent="1" vertex="1">
          <mxGeometry x="17.5" y="520" width="291" height="270" as="geometry" />
        </mxCell>
        <mxCell id="g-EUFQ-NRCmpqRzRRzE9-15" value="" style="rounded=0;whiteSpace=wrap;html=1;fontSize=20;dashed=1;fillColor=none;" parent="1" vertex="1">
          <mxGeometry x="40" y="40" width="760" height="400" as="geometry" />
        </mxCell>
        <mxCell id="g-EUFQ-NRCmpqRzRRzE9-23" value="" style="group" parent="1" vertex="1" connectable="0">
          <mxGeometry x="60" y="120" width="210" height="60" as="geometry" />
        </mxCell>
        <mxCell id="g-EUFQ-NRCmpqRzRRzE9-18" value="" style="rounded=1;whiteSpace=wrap;html=1;fontSize=27;" parent="g-EUFQ-NRCmpqRzRRzE9-23" vertex="1">
          <mxGeometry width="210" height="60" as="geometry" />
        </mxCell>
        <mxCell id="g-EUFQ-NRCmpqRzRRzE9-21" value="&lt;font style=&quot;font-size: 22px;&quot;&gt;F&lt;/font&gt;" style="ellipse;whiteSpace=wrap;html=1;aspect=fixed;fontSize=27;" parent="g-EUFQ-NRCmpqRzRRzE9-23" vertex="1">
          <mxGeometry x="20" width="60" height="60" as="geometry" />
        </mxCell>
        <mxCell id="g-EUFQ-NRCmpqRzRRzE9-22" value="container" style="text;html=1;strokeColor=none;fillColor=none;align=center;verticalAlign=middle;whiteSpace=wrap;rounded=0;fontSize=22;" parent="g-EUFQ-NRCmpqRzRRzE9-23" vertex="1">
          <mxGeometry x="119" y="15" width="60" height="30" as="geometry" />
        </mxCell>
        <mxCell id="g-EUFQ-NRCmpqRzRRzE9-24" value="" style="group" parent="1" vertex="1" connectable="0">
          <mxGeometry x="570" y="120" width="210" height="60" as="geometry" />
        </mxCell>
        <mxCell id="g-EUFQ-NRCmpqRzRRzE9-25" value="" style="rounded=1;whiteSpace=wrap;html=1;fontSize=27;" parent="g-EUFQ-NRCmpqRzRRzE9-24" vertex="1">
          <mxGeometry width="210" height="60" as="geometry" />
        </mxCell>
        <mxCell id="g-EUFQ-NRCmpqRzRRzE9-26" value="&lt;font style=&quot;font-size: 22px;&quot;&gt;B&lt;/font&gt;" style="ellipse;whiteSpace=wrap;html=1;aspect=fixed;fontSize=27;" parent="g-EUFQ-NRCmpqRzRRzE9-24" vertex="1">
          <mxGeometry x="20" width="60" height="60" as="geometry" />
        </mxCell>
        <mxCell id="g-EUFQ-NRCmpqRzRRzE9-27" value="container" style="text;html=1;strokeColor=none;fillColor=none;align=center;verticalAlign=middle;whiteSpace=wrap;rounded=0;fontSize=22;" parent="g-EUFQ-NRCmpqRzRRzE9-24" vertex="1">
          <mxGeometry x="119" y="15" width="60" height="30" as="geometry" />
        </mxCell>
        <mxCell id="g-EUFQ-NRCmpqRzRRzE9-28" value="" style="group" parent="1" vertex="1" connectable="0">
          <mxGeometry x="308.5" y="120" width="210" height="180" as="geometry" />
        </mxCell>
        <mxCell id="g-EUFQ-NRCmpqRzRRzE9-29" value="" style="rounded=1;whiteSpace=wrap;html=1;fontSize=27;" parent="g-EUFQ-NRCmpqRzRRzE9-28" vertex="1">
          <mxGeometry width="210" height="60" as="geometry" />
        </mxCell>
        <mxCell id="g-EUFQ-NRCmpqRzRRzE9-31" value="container" style="text;html=1;strokeColor=none;fillColor=none;align=center;verticalAlign=middle;whiteSpace=wrap;rounded=0;fontSize=22;" parent="g-EUFQ-NRCmpqRzRRzE9-28" vertex="1">
          <mxGeometry x="119" y="15" width="60" height="30" as="geometry" />
        </mxCell>
        <mxCell id="g-EUFQ-NRCmpqRzRRzE9-32" value="DB" style="shape=cylinder3;whiteSpace=wrap;html=1;boundedLbl=1;backgroundOutline=1;size=15;fontSize=22;" parent="g-EUFQ-NRCmpqRzRRzE9-28" vertex="1">
          <mxGeometry x="21.5" width="60" height="60" as="geometry" />
        </mxCell>
        <mxCell id="g-EUFQ-NRCmpqRzRRzE9-34" value="F" style="ellipse;whiteSpace=wrap;html=1;aspect=fixed;fontSize=22;fillColor=none;" parent="1" vertex="1">
          <mxGeometry x="140" y="380" width="50" height="50" as="geometry" />
        </mxCell>
        <mxCell id="g-EUFQ-NRCmpqRzRRzE9-35" value="DB" style="ellipse;whiteSpace=wrap;html=1;aspect=fixed;fontSize=22;fillColor=none;" parent="1" vertex="1">
          <mxGeometry x="380" y="380" width="50" height="50" as="geometry" />
        </mxCell>
        <mxCell id="g-EUFQ-NRCmpqRzRRzE9-36" value="B" style="ellipse;whiteSpace=wrap;html=1;aspect=fixed;fontSize=22;fillColor=none;" parent="1" vertex="1">
          <mxGeometry x="650" y="380" width="50" height="50" as="geometry" />
        </mxCell>
        <mxCell id="g-EUFQ-NRCmpqRzRRzE9-37" value="" style="rounded=0;whiteSpace=wrap;html=1;fontSize=22;fillColor=none;dashed=1;" parent="1" vertex="1">
          <mxGeometry x="40" y="920" width="760" height="240" as="geometry" />
        </mxCell>
        <mxCell id="g-EUFQ-NRCmpqRzRRzE9-38" value="Local Machine" style="text;html=1;strokeColor=none;fillColor=none;align=center;verticalAlign=middle;whiteSpace=wrap;rounded=0;fontSize=22;fontStyle=1" parent="1" vertex="1">
          <mxGeometry x="350" y="990" width="160" height="30" as="geometry" />
        </mxCell>
        <mxCell id="g-EUFQ-NRCmpqRzRRzE9-39" value="Virtual Machine" style="text;html=1;strokeColor=none;fillColor=none;align=center;verticalAlign=middle;whiteSpace=wrap;rounded=0;fontSize=22;fontStyle=1" parent="1" vertex="1">
          <mxGeometry x="317" y="60" width="206" height="30" as="geometry" />
        </mxCell>
        <mxCell id="g-EUFQ-NRCmpqRzRRzE9-41" value="docker-compose.yml" style="swimlane;dashed=1;fontSize=22;fillColor=none;startSize=30;" parent="1" vertex="1">
          <mxGeometry x="80" y="240" width="680" height="120" as="geometry" />
        </mxCell>
        <mxCell id="E5vZC3v7MmdQPzNhPv6M-1" value="" style="ellipse;shape=cloud;whiteSpace=wrap;html=1;fontSize=20;" parent="1" vertex="1">
          <mxGeometry x="320" y="510" width="490" height="370" as="geometry" />
        </mxCell>
        <mxCell id="E5vZC3v7MmdQPzNhPv6M-2" value="" style="endArrow=none;html=1;rounded=0;exitX=0.55;exitY=0.95;exitDx=0;exitDy=0;exitPerimeter=0;entryX=0.625;entryY=0.2;entryDx=0;entryDy=0;entryPerimeter=0;" parent="1" source="E5vZC3v7MmdQPzNhPv6M-1" target="E5vZC3v7MmdQPzNhPv6M-1" edge="1">
          <mxGeometry width="50" height="50" relative="1" as="geometry">
            <mxPoint x="320" y="560" as="sourcePoint" />
            <mxPoint x="370" y="510" as="targetPoint" />
          </mxGeometry>
        </mxCell>
        <mxCell id="E5vZC3v7MmdQPzNhPv6M-3" value="&lt;font style=&quot;font-size: 18px;&quot;&gt;GH&lt;/font&gt;" style="text;html=1;strokeColor=none;fillColor=none;align=center;verticalAlign=middle;whiteSpace=wrap;rounded=0;" parent="1" vertex="1">
          <mxGeometry x="640" y="584" width="60" height="30" as="geometry" />
        </mxCell>
        <mxCell id="E5vZC3v7MmdQPzNhPv6M-5" value="&lt;font style=&quot;font-size: 18px;&quot;&gt;Runner&lt;/font&gt;" style="text;html=1;strokeColor=none;fillColor=none;align=center;verticalAlign=middle;whiteSpace=wrap;rounded=0;" parent="1" vertex="1">
          <mxGeometry x="484" y="630" width="60" height="30" as="geometry" />
        </mxCell>
        <mxCell id="E5vZC3v7MmdQPzNhPv6M-9" style="edgeStyle=orthogonalEdgeStyle;rounded=0;orthogonalLoop=1;jettySize=auto;html=1;exitX=0.5;exitY=0;exitDx=0;exitDy=0;entryX=0.8;entryY=0.8;entryDx=0;entryDy=0;entryPerimeter=0;fontSize=18;" parent="1" source="E5vZC3v7MmdQPzNhPv6M-6" target="E5vZC3v7MmdQPzNhPv6M-1" edge="1">
          <mxGeometry relative="1" as="geometry" />
        </mxCell>
        <mxCell id="E5vZC3v7MmdQPzNhPv6M-6" value="" style="shape=hexagon;perimeter=hexagonPerimeter2;whiteSpace=wrap;html=1;fixedSize=1;fontSize=18;" parent="1" vertex="1">
          <mxGeometry x="550" y="1010" width="190" height="120" as="geometry" />
        </mxCell>
        <mxCell id="E5vZC3v7MmdQPzNhPv6M-7" value="Project&lt;br&gt;Frontend" style="text;html=1;strokeColor=none;fillColor=none;align=center;verticalAlign=middle;whiteSpace=wrap;rounded=0;fontSize=18;" parent="1" vertex="1">
          <mxGeometry x="585" y="1090" width="120" height="30" as="geometry" />
        </mxCell>
        <mxCell id="E5vZC3v7MmdQPzNhPv6M-30" style="edgeStyle=orthogonalEdgeStyle;rounded=0;orthogonalLoop=1;jettySize=auto;html=1;exitX=0.5;exitY=0;exitDx=0;exitDy=0;entryX=1;entryY=0.5;entryDx=0;entryDy=0;fontSize=17;" parent="1" source="E5vZC3v7MmdQPzNhPv6M-10" target="E5vZC3v7MmdQPzNhPv6M-26" edge="1">
          <mxGeometry relative="1" as="geometry" />
        </mxCell>
        <mxCell id="E5vZC3v7MmdQPzNhPv6M-10" value="" style="ellipse;whiteSpace=wrap;html=1;aspect=fixed;fontSize=18;" parent="1" vertex="1">
          <mxGeometry x="670" y="710" width="100" height="100" as="geometry" />
        </mxCell>
        <mxCell id="E5vZC3v7MmdQPzNhPv6M-11" value="&lt;font style=&quot;font-size: 17px;&quot;&gt;mainBranch&lt;/font&gt;" style="text;html=1;strokeColor=none;fillColor=none;align=center;verticalAlign=middle;whiteSpace=wrap;rounded=0;fontSize=18;" parent="1" vertex="1">
          <mxGeometry x="665" y="745" width="110" height="30" as="geometry" />
        </mxCell>
        <mxCell id="E5vZC3v7MmdQPzNhPv6M-15" style="edgeStyle=orthogonalEdgeStyle;rounded=0;orthogonalLoop=1;jettySize=auto;html=1;exitX=0;exitY=1;exitDx=0;exitDy=0;entryX=0.8;entryY=0.8;entryDx=0;entryDy=0;entryPerimeter=0;fontSize=17;" parent="1" source="E5vZC3v7MmdQPzNhPv6M-13" target="g-EUFQ-NRCmpqRzRRzE9-9" edge="1">
          <mxGeometry relative="1" as="geometry">
            <Array as="points">
              <mxPoint x="424" y="840" />
              <mxPoint x="250" y="840" />
            </Array>
          </mxGeometry>
        </mxCell>
        <mxCell id="E5vZC3v7MmdQPzNhPv6M-13" value="F" style="ellipse;whiteSpace=wrap;html=1;aspect=fixed;fontSize=17;" parent="1" vertex="1">
          <mxGeometry x="414" y="725" width="70" height="70" as="geometry" />
        </mxCell>
        <mxCell id="E5vZC3v7MmdQPzNhPv6M-16" style="edgeStyle=orthogonalEdgeStyle;rounded=0;orthogonalLoop=1;jettySize=auto;html=1;exitX=0;exitY=1;exitDx=0;exitDy=0;entryX=0.55;entryY=0.95;entryDx=0;entryDy=0;entryPerimeter=0;fontSize=17;" parent="1" source="E5vZC3v7MmdQPzNhPv6M-14" target="g-EUFQ-NRCmpqRzRRzE9-9" edge="1">
          <mxGeometry relative="1" as="geometry">
            <Array as="points">
              <mxPoint x="520" y="860" />
              <mxPoint x="178" y="860" />
            </Array>
          </mxGeometry>
        </mxCell>
        <mxCell id="E5vZC3v7MmdQPzNhPv6M-14" value="B" style="ellipse;whiteSpace=wrap;html=1;aspect=fixed;fontSize=17;" parent="1" vertex="1">
          <mxGeometry x="510" y="725" width="70" height="70" as="geometry" />
        </mxCell>
        <mxCell id="E5vZC3v7MmdQPzNhPv6M-18" value="" style="endArrow=none;html=1;rounded=0;fontSize=17;" parent="1" edge="1">
          <mxGeometry width="50" height="50" relative="1" as="geometry">
            <mxPoint x="360" y="680" as="sourcePoint" />
            <mxPoint x="610" y="680" as="targetPoint" />
          </mxGeometry>
        </mxCell>
        <mxCell id="E5vZC3v7MmdQPzNhPv6M-19" value="job:&amp;nbsp;push_to_docker_hub" style="text;html=1;strokeColor=none;fillColor=none;align=center;verticalAlign=middle;whiteSpace=wrap;rounded=0;fontSize=17;" parent="1" vertex="1">
          <mxGeometry x="470" y="680" width="60" height="30" as="geometry" />
        </mxCell>
        <mxCell id="E5vZC3v7MmdQPzNhPv6M-24" style="edgeStyle=orthogonalEdgeStyle;rounded=0;orthogonalLoop=1;jettySize=auto;html=1;exitX=0;exitY=0;exitDx=0;exitDy=0;entryX=0.25;entryY=1;entryDx=0;entryDy=0;fontSize=17;" parent="1" source="E5vZC3v7MmdQPzNhPv6M-22" target="g-EUFQ-NRCmpqRzRRzE9-41" edge="1">
          <mxGeometry relative="1" as="geometry" />
        </mxCell>
        <mxCell id="E5vZC3v7MmdQPzNhPv6M-22" value="job:&amp;nbsp;deploy_on_vps" style="text;html=1;strokeColor=none;fillColor=none;align=center;verticalAlign=middle;whiteSpace=wrap;rounded=0;fontSize=17;" parent="1" vertex="1">
          <mxGeometry x="500" y="590" width="60" height="30" as="geometry" />
        </mxCell>
        <mxCell id="E5vZC3v7MmdQPzNhPv6M-32" style="edgeStyle=orthogonalEdgeStyle;rounded=0;orthogonalLoop=1;jettySize=auto;html=1;exitX=0;exitY=1;exitDx=0;exitDy=0;entryX=1;entryY=0.5;entryDx=0;entryDy=0;fontSize=17;" parent="1" source="E5vZC3v7MmdQPzNhPv6M-26" target="E5vZC3v7MmdQPzNhPv6M-14" edge="1">
          <mxGeometry relative="1" as="geometry">
            <Array as="points">
              <mxPoint x="660" y="760" />
            </Array>
          </mxGeometry>
        </mxCell>
        <mxCell id="E5vZC3v7MmdQPzNhPv6M-33" style="edgeStyle=orthogonalEdgeStyle;rounded=0;orthogonalLoop=1;jettySize=auto;html=1;exitX=0;exitY=0;exitDx=0;exitDy=0;fontSize=17;" parent="1" source="E5vZC3v7MmdQPzNhPv6M-26" edge="1">
          <mxGeometry relative="1" as="geometry">
            <mxPoint x="590" y="600" as="targetPoint" />
            <Array as="points">
              <mxPoint x="610" y="640" />
              <mxPoint x="610" y="600" />
            </Array>
          </mxGeometry>
        </mxCell>
        <mxCell id="E5vZC3v7MmdQPzNhPv6M-26" value="" style="rhombus;whiteSpace=wrap;html=1;fontSize=17;" parent="1" vertex="1">
          <mxGeometry x="640" y="620" width="80" height="80" as="geometry" />
        </mxCell>
        <mxCell id="E5vZC3v7MmdQPzNhPv6M-34" value="Actions" style="text;html=1;strokeColor=none;fillColor=none;align=center;verticalAlign=middle;whiteSpace=wrap;rounded=0;fontSize=17;" parent="1" vertex="1">
          <mxGeometry x="650" y="645" width="60" height="30" as="geometry" />
        </mxCell>
      </root>
    </mxGraphModel>
  </diagram>
</mxfile>
